<svg xmlns="http://www.w3.org/2000/svg" version="1.1" xmlns:xlink="http://www.w3.org/1999/xlink" xmlns:svgjs="http://svgjs.dev/svgjs" width="1000" height="1125" viewBox="0 0 1000 1125"><g transform="matrix(1,0,0,1,0,0)"><svg viewBox="0 0 320 360" data-background-color="#ffffff" preserveAspectRatio="xMidYMid meet" height="1125" width="1000" xmlns="http://www.w3.org/2000/svg" xmlns:xlink="http://www.w3.org/1999/xlink"><g id="tight-bounds" transform="matrix(1,0,0,1,0,0)"><svg viewBox="0 0 320 360" height="360" width="320"><g><svg></svg></g><g><svg viewBox="0 0 320 360" height="360" width="320"><g><path xmlns="http://www.w3.org/2000/svg" d="M219.58 41.008c0.707 0 6.365 2.829 9.547 3.89-1.061 0.354-3.536-0.707-6.365-1.768 0.707 0 2.122 0.354 3.536 1.06-0.707-0.707-6.011-2.475-6.718-3.182M166.895 30.047c1.061-0.354 13.436 1.414 19.094 1.768 0.354-0.354-0.707-0.354-2.122-0.707 1.768-0.354 5.304 0.707 7.779 1.06-7.425 0.354-15.558-1.768-22.629-1.06-2.475 0-0.707-0.707-2.122-1.061M156.641 30.047c6.365 0 11.315 0 2.121 0.707-1.061-0.354-2.475-0.354-2.121-0.707M256.707 59.395c0.707 0 3.536 3.182 4.95 4.243-0.354 0.354-3.182-2.475-4.596-3.536 0.354 0.354 0 0-0.354-0.707M249.635 54.798c-2.829-2.475-3.889-2.475-4.243-3.889 2.475 1.414 4.243 2.829 4.243 3.889M204.022 32.522c0.354-0.354 1.061 0.354 2.829 0.707-2.122-0.354-1.768 0-1.061 0.707-2.475-0.354-3.182-0.707-2.475-1.414 1.414 0.707 1.768 0.354 0.707 0M103.602 36.765c0-0.354 1.414-1.061 2.475-1.414-1.061 0.707-0.707 1.061 1.061 0.353 0 0.354-2.122 1.061-3.536 1.768 0.707-0.354 1.414-1.414 0-0.707M211.094 28.986c-1.061 0.354-4.95-1.768-8.84-2.475-2.122-0.707 8.486 1.768 8.84 2.475M2.475 203.66c2.122 8.84 0.707 8.486 0 0M2.829 150.621c0.354-1.414 0.707-5.304 1.06-4.95-1.061 8.486-2.829 12.376-3.182 18.74 1.061-5.657-0.354 3.182-0.707 5.304 0.354 2.829 0.354-1.768 1.061-1.06 0.707 1.061-1.414 15.912-0.707 7.779-0.707 7.425 0 15.558 1.414 17.679-1.768 11.315 7.072 36.773 8.84 42.077 0.354 0.354 0-1.768 0.707-0.353 0.707 4.597 3.889 7.779 4.95 12.729 1.061 1.414 5.304 9.193 6.011 10.962 1.414 2.829 2.122 2.475 3.536 5.303 4.243 8.133 10.961 15.912 17.326 23.337 20.508 24.044 51.978 43.845 86.984 50.918 35.006 7.425 71.779 2.122 100.419-11.669 1.768-1.061 1.414-1.414 3.536-2.122 9.901-3.182 21.923-13.436 28.641-17.326 3.182-3.536 11.669-9.547 12.73-13.082 6.011-4.95 12.022-13.083 15.204-18.387 1.768-2.829 3.182-2.829 3.889-4.597-0.354 0 5.657-7.425 7.426-11.668-0.707 0-1.768 2.122-1.768 0 12.729-24.398 19.801-57.282 15.911-79.912 0.707 27.934-6.365 59.05-19.801 78.851-6.011 12.729-18.387 26.519-29.701 36.42-1.768 1.768-3.536 3.889-5.658 5.304-6.718 5.657-14.144 10.254-21.922 14.497-18.387 10.254-38.895 19.094-62.94 19.447 41.37-3.536 78.497-24.398 99.006-49.856-15.558 15.204-22.276 21.215-39.602 30.055-1.414 2.475-13.083 7.425-20.862 9.547 4.597-2.122 14.144-5.657 17.326-8.486-25.812 12.376-54.453 19.448-81.326 15.558 10.254 0 24.751 0.354 38.541-2.121 2.122-0.707 3.182-1.414 5.658-1.768 26.873-6.011 52.685-19.094 71.072-37.481-10.608 9.547-26.519 20.862-36.774 24.398 9.547-5.304 26.873-15.558 32.53-23.337-11.315 11.315-32.53 22.63-45.966 27.58-2.122 0.354 1.414-1.414-2.122 0-4.243 1.061-2.475 1.061-3.536 1.768-16.265 4.597-35.006 8.486-50.563 7.072-2.829-0.354-3.889-1.061-6.365-1.061-2.829-0.354-5.304-0.354-8.486-0.354-12.376-1.414-25.812-6.365-35.713-10.607-5.304-2.475-10.608-4.243-15.912-7.426-4.243-2.475-7.779-5.304-11.314-8.132-13.436-9.901-24.751-19.801-35.36-33.945-19.094-26.519-28.994-59.757-27.58-92.641 1.414-32.884 14.497-65.061 35.359-88.752-1.061 1.061 1.414-2.475 3.536-4.596 0 0.707-0.354 1.768 2.122-0.707 2.122-2.475-0.707-0.707 0.353-2.122 21.923-24.044 60.111-43.492 99.36-44.199 1.414-1.061 3.889-2.475 6.718-1.768 0 0.354-1.768 0.354-1.768 0.354 3.889-0.354 7.425-0.354 9.193 0.353 0.354-0.354-1.414-0.707 0-0.707 2.475 0.707 3.182 0 4.597 0.707-1.061 0-2.122 0-2.829 0.354 8.84 0 14.497 2.122 23.337 2.829-4.597-1.061-5.657-1.061-9.193-2.122 3.889 0.707 5.657 1.414 7.425 1.061-0.707 0-0.354-1.061 0.354-0.707 7.072 1.768 7.779 2.475 15.204 4.95 0.707-0.707-3.182-1.061-4.243-2.122 7.072 2.475 13.436 4.243 17.68 7.072-1.414-1.061-5.657-2.475-8.84-3.889-0.354 0.354 1.061 0.707 1.414 1.414-3.536-1.768-8.486-3.536-13.436-4.243 4.243 1.061 7.072 2.475 8.84 3.182-3.889-0.707-8.84-3.182-14.498-4.243 9.193 2.829 26.519 9.193 37.127 14.851-3.889-2.475-8.486-4.243-10.961-5.657 2.122 0.354 4.597 1.768 4.597 1.06 2.475 1.061 5.657 3.536 7.425 3.89-3.182-2.122-9.547-5.304-11.668-6.365 26.519 12.022 50.21 32.177 65.414 57.989 1.414 2.475 3.536 8.133 5.304 8.84-0.354-1.768-1.768-2.829-3.182-5.657 0.707 0 0.707-1.061 0-2.122-1.414-1.768 0 1.414-1.415-0.354-6.365-11.669-14.144-21.923-26.165-33.237 6.718 6.365 1.768 1.768 0.353-0.354 9.193 8.133 19.801 21.923 24.398 28.995-0.707-1.061-1.061-1.768-0.707-1.768 8.486 14.497 13.79 27.58 19.094 46.32 0.354 0.354 0-1.414 0.707-0.353 3.536 14.851 4.597 27.227 4.243 38.541 2.829-19.094-3.536-48.796-14.851-72.133-1.414-2.829-1.414-0.707-2.829-3.889 0-1.061-1.061-3.182-1.768-4.597-14.144-23.337-31.47-39.956-51.978-53.038 1.414 0.707 4.243 2.829 4.244 2.475-38.188-25.105-82.387-28.641-118.807-20.862-2.475 1.061-3.536 2.122-6.365 3.536 5.304-1.768 8.486-2.122 13.437-3.183 1.061-1.061-4.597 0.354-2.122-0.707 0.354 0.354 4.95-0.707 6.011-0.353 0 0.354-1.414 0.707-1.768 1.06 11.669-2.475 23.691-2.829 33.945-2.121-6.011 0.354-16.972-0.707-20.508 1.061 3.536-0.354 8.486-0.707 11.668-0.354-4.243 0-12.022 0.354-15.558 0.707-0.354-0.354 5.657-1.061 1.768-1.06-1.768 0.354-4.597 0.354-5.657 1.414-30.409 2.829-60.111 18.74-80.973 37.481-4.243 3.536-9.193 7.425-12.375 11.314-7.779 8.84-12.729 17.68-18.387 25.459 3.536-7.425 11.315-18.74 20.508-28.287 9.193-9.547 19.094-17.68 24.398-21.923 0 1.414 8.486-5.304 11.669-7.425-2.122 1.768 1.414-0.707 2.121-0.354 11.315-6.718 20.508-9.193 30.763-13.083-2.475 0.707-4.597 1.414-4.951 1.061 2.475-0.707 3.889-1.414 3.536-1.768-9.901 2.829-25.459 9.547-37.834 16.972 22.276-15.204 50.564-24.398 78.497-24.751 27.934-0.707 55.16 6.365 76.729 17.68 14.497 6.365 28.287 18.033 39.249 29.348 3.182 2.829 0.707-0.707 5.304 4.243-1.414-0.707-2.475-1.414-0.707 0.707 2.829 3.182-0.707-2.475 3.889 3.182-0.354 0-1.768-1.768-1.768-1.061 12.376 10.961 21.923 30.762 27.58 43.846-1.414-5.304-4.95-12.729-7.779-18.033 8.486 15.558 11.315 24.751 14.851 38.541 1.414 1.061-0.707-4.95 0.707-2.121 0.354 2.122 0.707 8.84 2.122 9.9-1.061-6.718-2.829-14.851-4.243-16.265 1.061 0.707-1.768-8.133-3.536-10.254-0.707-5.657-5.657-15.558-9.901-22.984-15.204-29.702-42.431-54.099-72.839-67.536 0-0.707-1.768-1.414-2.476-2.121-30.055-12.729-66.122-16.265-100.773-8.133-35.006 8.486-67.889 28.641-91.227 57.636 1.061-3.536 9.901-10.254 10.255-13.083-10.254 10.961-21.215 25.459-28.641 41.016-7.779 15.558-12.022 31.47-13.79 43.138" fill="#09913c" fill-rule="nonzero" stroke="none" stroke-width="1" stroke-linecap="butt" stroke-linejoin="miter" stroke-miterlimit="10" stroke-dasharray="" stroke-dashoffset="0" font-family="none" font-weight="none" font-size="none" text-anchor="none" style="mix-blend-mode: normal" data-fill-palette-color="tertiary"></path></g><g transform="matrix(1,0,0,1,83.17972477314837,90)"><svg viewBox="0 0 153.64055045370327 180" height="180" width="153.64055045370327"><g><svg viewBox="0 0 153.64055045370327 180" height="180" width="153.64055045370327"><g><svg viewBox="0 0 224 262.4307181986417" height="180" width="153.64055045370327"><g transform="matrix(1,0,0,1,0,145.69831931280476)"><svg viewBox="0 0 224 116.73239888583697" height="116.73239888583697" width="224"><g id="textblocktransform"><svg viewBox="0 0 224 116.73239888583697" height="116.73239888583697" width="224" id="textblock"><g><svg viewBox="0 0 224 67.29131389150206" height="67.29131389150206" width="224"><g transform="matrix(1,0,0,1,0,0)"><svg width="224" viewBox="2.549999952316284 -36.70000076293945 159.42999267578125 47.900001525878906" height="67.29131389150206" data-palette-color="#096a2e"><path d="M13.3 0.6L13.3 0.6Q8.65 0.6 5.6-3.18 2.55-6.95 2.55-13.05 2.55-19.15 4.65-24.18 6.75-29.2 10.65-32.35 14.55-35.5 18.98-35.5 23.4-35.5 26.13-33.5 28.85-31.5 28.85-28.73 28.85-25.95 27.2-24L27.2-24Q25.6-24 23.6-24.7 21.6-25.4 20.6-26.4L20.6-26.4 21.55-31.45Q20.35-32.2 18.4-32.2L18.4-32.2Q15.35-32.2 13-26.98 10.65-21.75 10.65-14.1L10.65-14.1Q10.65-9.05 12.33-6.78 14-4.5 16.4-4.5L16.4-4.5Q20.35-4.5 24-8.2L24-8.2 26.05-6.35Q25.5-5.55 24.05-4.15 22.6-2.75 21.2-1.83 19.8-0.9 17.65-0.15 15.5 0.6 13.3 0.6ZM38.95-19.05Q38.95-16.95 37.6-11.83 36.25-6.7 36.25-5.13 36.25-3.55 36.7-3.55L36.7-3.55Q37-3.55 39-4.5L39-4.5 39.6-4.8 40.45-3.05Q40-2.65 39.25-2.05 38.5-1.45 36.45-0.43 34.4 0.6 32.65 0.6 30.9 0.6 29.9-0.48 28.9-1.55 28.9-3.38 28.9-5.2 30.15-9.88 31.4-14.55 31.4-15.95L31.4-15.95Q31.4-18.05 30.1-19.9L30.1-19.9 29.65-20.5 29.7-21.15Q32.35-21.9 38.3-21.9L38.3-21.9Q38.95-21.15 38.95-19.05ZM33.25-27.38Q32.25-28.35 32.25-30 32.25-31.65 33.62-32.9 35-34.15 36.8-34.15 38.6-34.15 39.6-33.15 40.6-32.15 40.6-30.53 40.6-28.9 39.17-27.65 37.75-26.4 36-26.4 34.25-26.4 33.25-27.38ZM53-21.55L57.85-21.55Q57.75-20.3 57-18.65L57-18.65Q55.1-18.85 53.4-18.85L53.4-18.85 52.5-18.85Q50.2-7.7 50.2-4.95L50.2-4.95Q50.2-3.5 50.82-3.5 51.45-3.5 54.15-4.75L54.15-4.75 55.05-3.1Q50.6 0.6 46.8 0.6L46.8 0.6Q45.05 0.6 43.92-0.5 42.8-1.6 42.8-3.43 42.8-5.25 43.22-7.55 43.65-9.85 44.4-13.18 45.15-16.5 45.5-18.55L45.5-18.55Q43.65-18.4 42.75-18.25L42.75-18.25Q42.65-18.85 42.65-19.88 42.65-20.9 42.8-21.55L42.8-21.55 45.95-21.55Q46.35-24.25 46.35-26.65L46.35-26.65 46.3-28.2 46.3-28.35Q50.2-29.7 53.65-29.7L53.65-29.7Q53.85-28.7 53.85-27.2 53.85-25.7 53-21.55L53-21.55ZM63.77 5.4Q62.09 6.4 62.09 7.35 62.09 8.3 63.17 8.3 64.24 8.3 65.59 7.28 66.94 6.25 67.84 3.95L67.84 3.95Q65.44 4.4 63.77 5.4ZM61.34 0.2L61.34 0.2Q57.14 0.2 57.14-4.4L57.14-4.4Q57.14-5.5 58.14-10.75 59.14-16 59.14-19.5L59.14-19.5Q59.14-20.25 58.94-20.9L58.94-20.9Q61.64-21.95 66.34-21.95L66.34-21.95Q66.59-21.25 66.59-19.55 66.59-17.85 65.49-12.5 64.39-7.15 64.39-5.6 64.39-4.05 65.69-4.05L65.69-4.05Q67.24-4.05 69.44-5.6L69.44-5.6Q69.69-8.55 71.44-21.15L71.44-21.15Q73.19-21.85 77.74-21.85L77.74-21.85 78.69-21.85Q77.74-18.1 76.84-11.05 75.94-4 75.39-1.25L75.39-1.25Q74.34 4.25 71.52 7.73 68.69 11.2 64.14 11.2L64.14 11.2Q62.34 11.2 60.87 10.25 59.39 9.3 59.39 7.8L59.39 7.8Q59.39 5.8 61.84 4.15 64.29 2.5 68.44 1.6L68.44 1.6Q68.89-0.6 69.14-2.65L69.14-2.65Q65.09 0.2 61.34 0.2ZM112.29-2.4Q111.69-0.85 110.41 0.05 109.14 0.95 107.41 0.95 105.69 0.95 102.26-1.15 98.84-3.25 96.79-3.85L96.79-3.85Q95.44-2.05 93.74-0.85 92.04 0.35 91.39 0.35L91.39 0.35Q90.89 0.35 89.39-1.83 87.89-4 87.89-4.95L87.89-4.95Q87.89-5.5 89.46-6.6 91.04-7.7 92.79-8.1L92.79-8.1Q94.04-11.15 95.39-17.13 96.74-23.1 97.49-29.45L97.49-29.45Q97.49-30.25 96.96-31.38 96.44-32.5 95.89-33.2L95.89-33.2 95.39-33.9 95.54-34.65Q98.54-35.5 105.39-35.5L105.39-35.5Q106.04-34.4 106.04-32.15 106.04-29.9 104.74-25.45 103.44-21 101.16-14.78 98.89-8.55 98.54-7.4L98.54-7.4Q98.74-7.35 99.79-7.05 100.84-6.75 101.16-6.68 101.49-6.6 102.44-6.38 103.39-6.15 103.94-6.08 104.49-6 105.39-5.9L105.39-5.9Q106.94-5.65 108.31-5.65 109.69-5.65 110.29-6.35L110.29-6.35 111.69-8.95 113.34-8.55Q113.34-5.3 112.29-2.4L112.29-2.4ZM125.19-19.05Q125.19-16.95 123.84-11.83 122.49-6.7 122.49-5.13 122.49-3.55 122.94-3.55L122.94-3.55Q123.24-3.55 125.24-4.5L125.24-4.5 125.84-4.8 126.69-3.05Q126.24-2.65 125.49-2.05 124.74-1.45 122.69-0.43 120.64 0.6 118.89 0.6 117.14 0.6 116.14-0.48 115.14-1.55 115.14-3.38 115.14-5.2 116.39-9.88 117.64-14.55 117.64-15.95L117.64-15.95Q117.64-18.05 116.34-19.9L116.34-19.9 115.89-20.5 115.94-21.15Q118.59-21.9 124.54-21.9L124.54-21.9Q125.19-21.15 125.19-19.05ZM119.49-27.38Q118.49-28.35 118.49-30 118.49-31.65 119.86-32.9 121.24-34.15 123.04-34.15 124.84-34.15 125.84-33.15 126.84-32.15 126.84-30.53 126.84-28.9 125.41-27.65 123.99-26.4 122.24-26.4 120.49-26.4 119.49-27.38ZM138.38-21.55L143.03-21.55Q142.93-20.45 142.13-18.65L142.13-18.65Q140.23-18.85 138.38-18.85L138.38-18.85 138.18-18.85Q137.13-6.5 136.23-0.6 135.33 5.3 133.88 7.65L133.88 7.65Q132.08 7.6 130.16 7.18 128.23 6.75 127.53 6.3L127.53 6.3Q128.73 2.6 129.96-4.85 131.18-12.3 131.53-18.6L131.53-18.6Q130.13-18.5 128.43-18.25L128.43-18.25Q128.28-18.9 128.28-19.58 128.28-20.25 128.48-21.55L128.48-21.55 131.68-21.55Q131.78-25.9 132.13-28.15L132.13-28.15Q132.73-32.15 134.91-34.43 137.08-36.7 140.53-36.7L140.53-36.7Q142.73-36.7 144.01-35.73 145.28-34.75 145.28-32.65 145.28-30.55 143.38-27.23 141.48-23.9 138.38-21.55L138.38-21.55ZM138.48-24.7Q140.43-26.35 141.53-28.35 142.63-30.35 142.63-31.98 142.63-33.6 141.58-33.6L141.58-33.6Q139.38-33.6 138.78-28.55L138.78-28.55Q138.58-26.85 138.48-24.7L138.48-24.7ZM142.88-8.65L142.88-8.65Q142.88-14.9 146.66-18.53 150.43-22.15 155.23-22.15L155.23-22.15Q158.18-22.15 160.08-20.7 161.98-19.25 161.98-16.82 161.98-14.4 160.76-12.75 159.53-11.1 157.78-10.2L157.78-10.2Q154.23-8.45 151.28-8L151.28-8 150.08-7.85Q150.43-3.15 153.93-3.15L153.93-3.15Q155.13-3.15 156.48-3.75 157.83-4.35 158.58-4.95L158.58-4.95 159.33-5.55 160.53-3.95Q160.13-3.4 158.93-2.5 157.73-1.6 156.68-1L156.68-1Q153.78 0.6 150.33 0.6 146.88 0.6 144.88-1.85 142.88-4.3 142.88-8.65ZM150.03-10.3Q152.58-10.75 154.08-12.45 155.58-14.15 155.58-16.85 155.58-19.55 153.98-19.55L153.98-19.55Q152.08-19.55 151.06-16.32 150.03-13.1 150.03-10.3L150.03-10.3Z" opacity="1" transform="matrix(1,0,0,1,0,0)" fill="#096a2e" class="undefined-text-0" data-fill-palette-color="primary" id="text-0"></path></svg></g></svg></g><g transform="matrix(1,0,0,1,0,83.1771781097523)"><svg viewBox="0 0 224 33.55522077608468" height="33.55522077608468" width="224"><g transform="matrix(1,0,0,1,0,0)"><svg width="224" viewBox="5 -39.54999923706055 343.7615051269531 51.5" height="33.55522077608468" data-palette-color="#096a2e"><path d="M30.35 0L7.15 0Q6.25 0 5.63-0.63 5-1.25 5-2.15L5-2.15 5-36.9Q5-37.85 5.63-38.45 6.25-39.05 7.15-39.05L7.15-39.05 30.35-39.05Q31.25-39.05 31.88-38.48 32.5-37.9 32.5-36.95L32.5-36.95Q32.5-36.1 31.88-35.52 31.25-34.95 30.35-34.95L30.35-34.95 9.35-34.95 9.35-21.7 24.55-21.7Q25.5-21.7 26.1-21.1 26.7-20.5 26.7-19.65L26.7-19.65Q26.7-18.75 26.1-18.15 25.5-17.55 24.55-17.55L24.55-17.55 9.35-17.55 9.35-4.1 30.35-4.1Q31.25-4.1 31.88-3.53 32.5-2.95 32.5-2.1L32.5-2.1Q32.5-1.15 31.88-0.58 31.25 0 30.35 0L30.35 0ZM45.8 0L45.35 0Q43.3 0 41.67-1.13 40.05-2.25 39.15-4.25 38.25-6.25 38.25-8.85L38.25-8.85 38.25-36.95Q38.25-37.9 38.82-38.48 39.4-39.05 40.35-39.05L40.35-39.05Q41.3-39.05 41.87-38.48 42.45-37.9 42.45-36.95L42.45-36.95 42.45-8.85Q42.45-6.8 43.27-5.5 44.1-4.2 45.35-4.2L45.35-4.2 46.6-4.2Q47.45-4.2 47.95-3.63 48.45-3.05 48.45-2.1L48.45-2.1Q48.45-1.15 47.72-0.58 47 0 45.8 0L45.8 0ZM64.7-11.55L53.15-11.55Q52.25-11.55 51.62-12.15 51-12.75 51-13.65L51-13.65Q51-14.6 51.62-15.2 52.25-15.8 53.15-15.8L53.15-15.8 64.7-15.8Q65.59-15.8 66.2-15.2 66.8-14.6 66.8-13.65L66.8-13.65Q66.8-12.75 66.2-12.15 65.59-11.55 64.7-11.55L64.7-11.55ZM75.84 0L75.84 0Q74.94 0 74.32-0.63 73.69-1.25 73.69-2.15L73.69-2.15 73.69-36.9Q73.69-37.85 74.32-38.45 74.94-39.05 75.84-39.05L75.84-39.05 85.09-39.05Q88.79-39.05 91.64-37.5 94.49-35.95 96.12-33.23 97.74-30.5 97.74-26.9L97.74-26.9Q97.74-23.5 96.12-20.85 94.49-18.2 91.64-16.7 88.79-15.2 85.09-15.2L85.09-15.2 78.04-15.2 78.04-2.15Q78.04-1.25 77.42-0.63 76.79 0 75.84 0ZM96.69 0L96.69 0Q96.04 0 95.59-0.28 95.14-0.55 94.84-1.1L94.84-1.1 85.44-16.1 89.69-17.25 98.39-3.35Q99.19-2.05 98.67-1.03 98.14 0 96.69 0ZM78.04-34.95L78.04-19.3 85.09-19.3Q87.54-19.3 89.44-20.28 91.34-21.25 92.44-22.98 93.54-24.7 93.54-26.9L93.54-26.9Q93.54-29.3 92.44-31.1 91.34-32.9 89.44-33.93 87.54-34.95 85.09-34.95L85.09-34.95 78.04-34.95ZM116.89 0.25L116.89 0.25Q112.79 0.25 109.64-1.53 106.49-3.3 104.69-6.45 102.89-9.6 102.89-13.65L102.89-13.65Q102.89-17.75 104.59-20.88 106.29-24 109.27-25.8 112.24-27.6 116.14-27.6L116.14-27.6Q119.99-27.6 122.79-25.88 125.59-24.15 127.12-21.1 128.64-18.05 128.64-14.15L128.64-14.15Q128.64-13.3 128.09-12.78 127.54-12.25 126.69-12.25L126.69-12.25 105.79-12.25 105.79-15.7 126.89-15.7 124.79-14.2Q124.79-16.95 123.74-19.15 122.69-21.35 120.77-22.6 118.84-23.85 116.14-23.85L116.14-23.85Q113.29-23.85 111.19-22.53 109.09-21.2 107.94-18.9 106.79-16.6 106.79-13.65L106.79-13.65Q106.79-10.7 108.09-8.43 109.39-6.15 111.67-4.83 113.94-3.5 116.89-3.5L116.89-3.5Q118.59-3.5 120.37-4.1 122.14-4.7 123.19-5.6L123.19-5.6Q123.79-6.1 124.57-6.13 125.34-6.15 125.89-5.7L125.89-5.7Q126.59-5.05 126.62-4.28 126.64-3.5 125.99-2.95L125.99-2.95Q124.29-1.55 121.77-0.65 119.24 0.25 116.89 0.25ZM158.49 0L158.49 0Q157.54 0 156.94-0.6 156.34-1.2 156.34-2.1L156.34-2.1 156.34-14.85Q156.34-17.9 155.19-19.83 154.04-21.75 152.11-22.7 150.19-23.65 147.69-23.65L147.69-23.65Q145.39-23.65 143.49-22.75 141.59-21.85 140.49-20.28 139.39-18.7 139.39-16.65L139.39-16.65 136.54-16.65Q136.59-19.8 138.16-22.28 139.74-24.75 142.39-26.2 145.04-27.65 148.29-27.65L148.29-27.65Q151.84-27.65 154.61-26.18 157.39-24.7 158.99-21.85 160.59-19 160.59-14.85L160.59-14.85 160.59-2.1Q160.59-1.2 159.99-0.6 159.39 0 158.49 0ZM137.29 0L137.29 0Q136.34 0 135.74-0.58 135.14-1.15 135.14-2.1L135.14-2.1 135.14-25.2Q135.14-26.2 135.74-26.78 136.34-27.35 137.29-27.35L137.29-27.35Q138.24-27.35 138.81-26.78 139.39-26.2 139.39-25.2L139.39-25.2 139.39-2.1Q139.39-1.15 138.81-0.58 138.24 0 137.29 0ZM137.29-10.75L137.29-10.75Q136.34-10.75 135.74-11.35 135.14-11.95 135.14-12.9L135.14-12.9 135.14-36.9Q135.14-37.9 135.74-38.48 136.34-39.05 137.29-39.05L137.29-39.05Q138.24-39.05 138.81-38.48 139.39-37.9 139.39-36.9L139.39-36.9 139.39-12.9Q139.39-11.95 138.81-11.35 138.24-10.75 137.29-10.75ZM180.94 0.25L180.94 0.25Q177.14 0.25 174.14-1.58 171.14-3.4 169.39-6.55 167.64-9.7 167.64-13.65L167.64-13.65Q167.64-17.65 169.46-20.8 171.29-23.95 174.44-25.78 177.59-27.6 181.54-27.6L181.54-27.6Q185.44-27.6 188.56-25.78 191.69-23.95 193.51-20.8 195.34-17.65 195.39-13.65L195.39-13.65 193.69-12.85Q193.69-9.15 192.01-6.18 190.34-3.2 187.46-1.48 184.59 0.25 180.94 0.25ZM181.54-3.6L181.54-3.6Q184.29-3.6 186.49-4.9 188.69-6.2 189.94-8.5 191.19-10.8 191.19-13.65L191.19-13.65Q191.19-16.55 189.94-18.82 188.69-21.1 186.49-22.43 184.29-23.75 181.54-23.75L181.54-23.75Q178.79-23.75 176.59-22.43 174.39-21.1 173.09-18.82 171.79-16.55 171.79-13.65L171.79-13.65Q171.79-10.8 173.09-8.5 174.39-6.2 176.59-4.9 178.79-3.6 181.54-3.6ZM193.24 0L193.24 0Q192.29 0 191.69-0.58 191.09-1.15 191.09-2.1L191.09-2.1 191.09-10.35 192.04-14.75 195.39-13.65 195.39-2.1Q195.39-1.15 194.76-0.58 194.14 0 193.24 0ZM216.68 0.25L216.68 0.25Q212.78 0.25 209.68-1.58 206.58-3.4 204.76-6.53 202.93-9.65 202.88-13.55L202.88-13.55 202.88-36.9Q202.88-37.9 203.48-38.48 204.08-39.05 205.03-39.05L205.03-39.05Q205.98-39.05 206.56-38.48 207.13-37.9 207.13-36.9L207.13-36.9 207.13-22.6Q208.83-24.85 211.48-26.23 214.13-27.6 217.33-27.6L217.33-27.6Q221.13-27.6 224.13-25.78 227.13-23.95 228.86-20.8 230.58-17.65 230.58-13.7L230.58-13.7Q230.58-9.7 228.76-6.55 226.93-3.4 223.81-1.58 220.68 0.25 216.68 0.25ZM216.68-3.6L216.68-3.6Q219.48-3.6 221.68-4.93 223.88-6.25 225.16-8.53 226.43-10.8 226.43-13.7L226.43-13.7Q226.43-16.55 225.16-18.85 223.88-21.15 221.68-22.45 219.48-23.75 216.68-23.75L216.68-23.75Q213.98-23.75 211.76-22.45 209.53-21.15 208.28-18.85 207.03-16.55 207.03-13.7L207.03-13.7Q207.03-10.8 208.28-8.53 209.53-6.25 211.76-4.93 213.98-3.6 216.68-3.6ZM270.88 0.5L270.88 0.5Q266.83 0.5 263.3-1.05 259.78-2.6 257.1-5.35 254.43-8.1 252.95-11.73 251.48-15.35 251.48-19.55L251.48-19.55Q251.48-23.7 252.95-27.33 254.43-30.95 257.08-33.68 259.73-36.4 263.25-37.98 266.78-39.55 270.88-39.55L270.88-39.55Q274.53-39.55 277.43-38.53 280.33-37.5 283.08-35.2L283.08-35.2Q283.53-34.85 283.65-34.43 283.78-34 283.68-33.6 283.58-33.2 283.28-32.95L283.28-32.95Q283.23-32.35 282.73-32 282.23-31.65 281.58-31.68 280.93-31.7 280.28-32.2L280.28-32.2Q278.38-33.85 276.18-34.68 273.98-35.5 270.88-35.5L270.88-35.5Q267.73-35.5 264.98-34.25 262.23-33 260.13-30.8 258.03-28.6 256.85-25.7 255.68-22.8 255.68-19.55L255.68-19.55Q255.68-16.2 256.85-13.33 258.03-10.45 260.13-8.25 262.23-6.05 264.98-4.8 267.73-3.55 270.88-3.55L270.88-3.55Q273.53-3.55 275.93-4.45 278.33-5.35 280.48-7L280.48-7Q281.18-7.55 281.93-7.45 282.68-7.35 283.2-6.8 283.73-6.25 283.73-5.35L283.73-5.35Q283.73-4.95 283.58-4.58 283.43-4.2 283.13-3.8L283.13-3.8Q280.53-1.55 277.4-0.53 274.28 0.5 270.88 0.5ZM294.33 0L294.33 0Q293.38 0 292.78-0.6 292.18-1.2 292.18-2.15L292.18-2.15 292.18-25.2Q292.18-26.2 292.78-26.78 293.38-27.35 294.33-27.35L294.33-27.35Q295.28-27.35 295.85-26.78 296.43-26.2 296.43-25.2L296.43-25.2 296.43-2.15Q296.43-1.2 295.85-0.6 295.28 0 294.33 0ZM294.28-32.3L294.28-32.3Q293.08-32.3 292.23-33.15 291.38-34 291.38-35.25L291.38-35.25Q291.38-36.5 292.25-37.33 293.13-38.15 294.33-38.15L294.33-38.15Q295.48-38.15 296.35-37.33 297.23-36.5 297.23-35.25L297.23-35.25Q297.23-34 296.35-33.15 295.48-32.3 294.28-32.3ZM317.57 0L316.57 0Q313.97 0 311.92-1.25 309.87-2.5 308.7-4.7 307.52-6.9 307.52-9.65L307.52-9.65 307.52-33.9Q307.52-34.85 308.1-35.45 308.67-36.05 309.62-36.05L309.62-36.05Q310.52-36.05 311.12-35.45 311.72-34.85 311.72-33.9L311.72-33.9 311.72-9.65Q311.72-7.3 313.1-5.78 314.47-4.25 316.57-4.25L316.57-4.25 318.02-4.25Q318.87-4.25 319.42-3.65 319.97-3.05 319.97-2.1L319.97-2.1Q319.97-1.15 319.3-0.58 318.62 0 317.57 0L317.57 0ZM316.92-22.7L304.57-22.7Q303.72-22.7 303.17-23.2 302.62-23.7 302.62-24.5L302.62-24.5Q302.62-25.3 303.17-25.83 303.72-26.35 304.57-26.35L304.57-26.35 316.92-26.35Q317.77-26.35 318.32-25.83 318.87-25.3 318.87-24.5L318.87-24.5Q318.87-23.7 318.32-23.2 317.77-22.7 316.92-22.7L316.92-22.7ZM330.97 11.95L330.97 11.95Q330.57 11.95 329.97 11.7L329.97 11.7Q328.12 10.85 328.97 9.05L328.97 9.05 344.82-26.15Q345.62-27.95 347.47-27.15L347.47-27.15Q349.32-26.4 348.52-24.55L348.52-24.55 332.62 10.65Q332.07 11.95 330.97 11.95ZM336.67-0.95L336.67-0.95Q335.82-0.55 335.12-0.83 334.42-1.1 333.97-1.9L333.97-1.9 322.72-24.55Q322.32-25.35 322.62-26.08 322.92-26.8 323.72-27.2L323.72-27.2Q324.57-27.55 325.27-27.3 325.97-27.05 326.37-26.2L326.37-26.2 337.32-3.55Q337.77-2.75 337.62-2.02 337.47-1.3 336.67-0.95Z" opacity="1" transform="matrix(1,0,0,1,0,0)" fill="#096a2e" class="undefined-text-1" data-fill-palette-color="secondary" id="text-1"></path></svg></g></svg></g></svg></g></svg></g><g transform="matrix(1,0,0,1,42.784000000000006,0)"><svg viewBox="0 0 138.432 129.8124550945545" height="129.8124550945545" width="138.432"><g><svg xmlns="http://www.w3.org/2000/svg" xmlns:xlink="http://www.w3.org/1999/xlink" version="1.1" x="0" y="0" viewBox="0 3.25 99.9749984741211 93.75" enable-background="new 0 0 100 100" xml:space="preserve" height="129.8124550945545" width="138.432" class="icon-icon-0" data-fill-palette-color="accent" id="icon-0"><g fill="#096a2e" data-fill-palette-color="accent"><path d="M76.807 73.834c-6.369 0-12.141 2.572-16.33 6.735 4.469 2.974 6.594 8.539 5.17 16.431h34.328C99.975 84.205 89.602 73.834 76.807 73.834z" fill="#096a2e" data-fill-palette-color="accent"></path><path d="M51.088 82.439C43.046 82.439 36.53 88.96 36.53 97h29.116C65.646 88.96 59.126 82.439 51.088 82.439z" fill="#096a2e" data-fill-palette-color="accent"></path></g><polygon points="86.682,8.988 86.682,3.25 67.216,3.25 67.216,8.988 54.658,8.988 54.675,11.671 54.671,11.671 54.671,50.426   60.847,56.482 60.847,15.357 67.496,15.357 67.496,67.202 73.672,67.202 73.672,15.357 80.333,15.357 80.333,67.202 86.509,67.202   86.509,15.357 93.605,15.357 93.605,71.563 99.975,77.113 99.975,8.988 " fill="#096a2e" data-fill-palette-color="accent"></polygon><g fill="#096a2e" data-fill-palette-color="accent"><path d="M51.084 56.997H21.633L18.368 97h11.793c0-11.539 9.388-20.925 20.927-20.925 1.51 0 2.98 0.167 4.4 0.473l0.503-0.497c1.522-1.512 3.187-2.818 4.95-3.945v-4.903L51.084 56.997z" fill="#096a2e" data-fill-palette-color="accent"></path><path d="M0 41.467V97h17.96 0.353V41.467L9.079 18.91 0 41.467zM13.874 50.455c0 2.547-2.064 4.615-4.619 4.615-2.55 0-4.615-2.068-4.615-4.615 0-2.55 2.064-4.614 4.615-4.614C11.81 45.841 13.874 47.905 13.874 50.455z" fill="#096a2e" data-fill-palette-color="accent"></path></g></svg></g></svg></g><g></g></svg></g></svg></g></svg></g></svg></g><defs></defs></svg><rect width="320" height="360" fill="none" stroke="none" visibility="hidden"></rect></g></svg></g></svg>